<svg xmlns="http://www.w3.org/2000/svg" viewBox="0 0 2732 2732">
    <title>splash</title>
    <g id="Background">
        <rect id="White" width="2732" height="2732" style="fill:#fff"/>
    </g>
    <g id="Version">
        <text transform="translate(1316 2605.9)"
              style="font-size:38.381439208984375px;fill:#9e9c9d;font-family:Thonburi">1.0.0
        </text>
    </g>
    <g id="Logo">
        <g id="Logo-2" data-name="Logo">
            <path d="M1761,796.77c-18.49,8.48-45.91,16.53-75,21.94-10.31,2-33.39,4.77-50.25,6.2-15.71,1.28-51.22,1.14-79-.43-21-1.14-26.27-1.14-40.1-.43-19.47,1-21.52,1.21-30.27,2.5-1.56.21-6.55.92-11,1.49-10.8,1.5-35.27,6.84-47.05,10.26-28.64,8.33-53.52,18.87-76.1,32.19-8.67,5.13-22.09,14.17-21,14.17.25,0,5.32-1.71,11.37-3.84,40.18-14.11,87.4-24,134-27.92,20-1.71,54.25-1.71,75.69,0,19.15,1.56,51.22,1.78,66.69.5,48-3.92,86.57-16.81,124.46-41.53,9.49-6.12,26.1-18.16,26.1-18.8,0-.14-.08-.21-.16-.21S1765.48,794.71,1761,796.77Z"
                  transform="translate(0 0)" style="fill:#f39302"/>
            <path d="M1444.14,795.78c-44.59,2.13-89.6,16-138.94,42.59q-35.6,19.23-64.65,29.77c-29.78,10.82-65.46,18-104.73,20.72-9.41.72-52.21.5-56.47-.28-5.64-1,.5,1.07,7,2.42,36.74,7.48,84.2,9.19,125.53,4.63,27.65-3.06,54.82-9,77.4-17,15.22-5.41,26.27-10.61,45.34-21.37,56.79-32,128.22-52.28,185.58-52.49,7.53,0,13.59-.14,13.42-.28s-6-1.43-12.93-2.78C1493.89,796.49,1469.26,794.57,1444.14,795.78Z"
                  transform="translate(0 0)" style="fill:#266828"/>
            <path d="M1482.77,868.07c-28,1.92-42.39,3.77-62.19,8a338.69,338.69,0,0,0-92.47,34.18c-55.81,30.27-98.19,43.38-159.56,49.29-6.22.57-20,.92-37.4.92-15.14,0-27.41.07-27.33.15.66.57,21.52,4.06,30.77,5.2,20.05,2.42,33.14,3.06,56.62,2.63,45.66-.78,84.12-6.91,121.35-19.51,12.11-4.06,30.53-11.83,38-16,17.19-9.54,51.06-24.78,70.78-31.84A472.23,472.23,0,0,1,1474.58,885c25.86-6.48,60.39-11.68,77.41-11.68,8.59,0,5.08-1.14-8.43-2.71C1521.8,867.93,1497.9,867,1482.77,868.07Z"
                  transform="translate(0 0)" style="fill:#e30813"/>
            <path d="M1817.44,880.1c-23.65,9-58.67,16.24-93.69,19.23-9.9.86-21.44,1.21-37.64,1.21a483.06,483.06,0,0,1-69.15-4.41c-29.78-3.78-48.77-4.77-70.78-3.63-55.4,2.77-105,15.17-147.86,37.1a197.74,197.74,0,0,0-17.68,10.12c-1.31.71-2.12,1.49-2,1.63s4.34-.85,9.25-2.2c55.31-15.46,117.42-22.58,170.12-19.59,15.87.93,24.3,1.78,43.37,4.27,57.93,7.77,98.43,6.27,139.35-5.12,25.12-7,49-18.09,76.1-35.33C1827.75,876.4,1827.83,876.19,1817.44,880.1Z"
                  transform="translate(0 0)" style="fill:#039ee3"/>
            <path d="M1309,894.35c-38,15-98,23.36-151.62,21.08-19.23-.85-41.33-2.78-54.5-4.77-29.62-4.42-64.24-4.92-95.49-1.35-53.19,6.05-105.15,22.93-138.7,45.08-2,1.35-3.11,2.28-2.46,2.06,27.74-8.76,69.07-16.73,103.92-20.08,38.79-3.78,81.5-3.13,114.56,1.71,53.6,7.83,96.81,7.41,134.2-1.43,29.13-6.9,54-17.59,82.81-35.54C1316.74,891.71,1317.55,890.93,1309,894.35Z"
                  transform="translate(0 0)" style="fill:#016d9c"/>
            <path d="M1764.25,930c-22,8-48.28,13.32-76.1,15.31-13.25.93-47,.5-60.39-.78-4.82-.5-9-.71-9.24-.5s.33,13.25,1.23,29.06c1.63,28.2,2.86,51.92,3.76,75.42.24,6.48.65,14.46.82,17.81s.57,14.53.9,24.93.73,24.78,1.06,32l.49,13.17,5.32-.21c8.35-.36,36.5-2.85,54-4.84a1088,1088,0,0,0,114.56-19.52c18.74-4.27,46-11.25,46.88-12s-22.42-51.35-23.64-51.35a82.31,82.31,0,0,0-8.76,2.85c-16,5.84-38.38,12.11-59.08,16.6-8.18,1.78-27.66,5.48-28.88,5.48-.58,0-2.62-13.75-2.62-17.66,0-1.28,1.06-1.64,8-3,17.18-3.42,33.87-7.34,46.39-11,12.93-3.78,35.52-11.4,36.5-12.32.73-.65-19.4-45.37-20.3-45.3a13.58,13.58,0,0,0-2.7.78,467.65,467.65,0,0,1-51.14,16.17c-14.73,3.56-22.83,5.34-23.16,5.06s-2.53-14.6-2.61-17.17c0-2.21.08-2.28,6.79-3.77a456.33,456.33,0,0,0,55.39-16.74c4.75-1.78,8.68-3.28,8.76-3.28.74,0-.49-3.06-7-17.94-4-9.12-7.52-17.17-7.85-17.88C1770.88,927.75,1770.14,927.82,1764.25,930Z"
                  transform="translate(0 0)" style="fill:#77b82a"/>
            <path d="M1515.09,1000.47c0,35.25-.33,63.53-.74,63-1.23-1.85-14.32-33.69-25.69-62.32-6.14-15.24-23.49-59.61-23.49-59.9s-22.83,3.42-29.54,4.7c-13.09,2.5-29,6.27-40.26,9.48-12.19,3.49-11.62,2.7-8.34,10.47,11.78,28.34,20.78,49.21,34.94,81.19,8.26,18.8,17.1,38.17,34.69,75.92l5.4,11.47,14,.5c7.77.28,17.42.64,21.43.85,9.82.43,76.27,1.71,91.16,1.71h11.78l-.49-69.3c-.32-54.91-1.8-126.2-2.53-127.06-.25-.28-11.13-1.64-21.85-2.78-6.38-.64-21.2-1.28-35.68-1.49l-24.79-.43Z"
                  transform="translate(0 0)" style="fill:#77b82a"/>
            <path d="M1345.29,955.17c-35.18,15.88-78.63,26.28-124.21,29.84-4.42.29-8.18.72-8.35.93a100.14,100.14,0,0,0-3.68,10.26c-4.09,12.1-5.4,15.95-14.32,41.23-8.67,24.57-15,41.88-23.4,64-3.52,9.4-6.3,17.24-6.06,17.38s7.61.43,16.53.57c12.77.28,46,1.42,76.35,2.64l2.78.14,3.36-11.26,3.27-11.25,10.23.5c5.64.28,19.47,1,30.68,1.64l20.46,1.14,1.39,3.91c.74,2.14,2.54,7.48,3.93,11.83l2.62,8,5,.43c2.78.29,12.84.93,22.25,1.5s22.18,1.42,28.24,1.78,14,.85,17.59,1.07c18.49,1.21,24.3,1.42,24.63,1,.16-.28-.66-2.49-1.88-5-6.55-14-40.18-91.17-46.73-107.48-1.39-3.34-4.42-10.68-6.71-16.38s-8.1-20.08-12.76-32.05-8.68-21.72-8.76-21.79S1352.09,952.18,1345.29,955.17Zm-52,30.77c0,1.28,9.66,31.55,16,50,3,8.54,5.24,15.6,5.08,15.74-.5.28-36.83-1.71-37.24-2.07-.24-.21,1.23-7.19,3.28-15.52s5.48-22.8,7.61-32.13,4.17-16.87,4.58-16.87S1293.33,985.51,1293.33,985.94Z"
                  transform="translate(0 0)" style="fill:#77b82a"/>
            <path d="M1027.8,951.82c-.16.5-6,14.32-13.17,30.77-14.89,34.9-23.4,53.85-23.81,53.49s1.31-76.14,1.8-80.34c.24-1.78.16-3.42-.17-3.63-1-.43-22.09,1.42-35,3.06C946.22,956.6,917,961.58,911,963l-2.94.71-.49,5.2c-2.13,22.5-4,170-2.21,170,.49,0,8-1.28,16.69-2.77,20.87-3.71,38.21-6.2,59.08-8.55l17.18-1.92,4.34-8.48c2.46-4.7,5.65-11.11,7.12-14.24s6.71-14.18,11.62-24.57,10.23-21.58,11.7-24.93a52.44,52.44,0,0,1,3.36-6.7c.73-.71,1,.93,3.19,21.65,2.37,21.8,6.54,52.21,7.2,52.85.33.29,4.83.22,10-.14s15.14-.86,22.09-1.07,15.31-.57,18.42-.71,13.5-.29,22.91-.36h17.18l1.07-3.06c2.2-6.2,10.22-28.06,11.7-31.84,5.72-14.74,33.22-96.64,32.56-97.14-.16-.15-6.38-.43-13.82-.72a397.66,397.66,0,0,1-55.57-5.48c-4.25-.78-7.77-1.28-7.85-1.21s-2,5.2-4.09,11.25c-6.71,19.3-12.11,33.83-12.69,34.4-.32.36-.81-2.42-1.14-6.05-1.47-18.09-2.95-39.88-3.44-50.57-.33-6.55-.82-12.18-1.06-12.53-.82-1.14-23.73-3.35-48.2-4.7C1030,951,1028.05,951.18,1027.8,951.82Z"
                  transform="translate(0 0)" style="fill:#77b82a"/>
            <path d="M1846.74,1127.32c-1.56.49-1.31,2,1.8,9.75,1.55,4,3.51,9.48,4.5,12.25,1.71,5.27,3.92,7.91,6.13,7.13s2.21-2.28-.73-8.84a118.3,118.3,0,0,1-4.59-12C1851.4,1127.74,1850,1126.1,1846.74,1127.32Z"
                  transform="translate(0 0)" style="fill:#9e9c9d"/>
            <path d="M1812.29,1136.5c-.49.79,0,3.07,1.47,6.91a63.67,63.67,0,0,1,2.78,8.55l.57,2.78-2.53-.5c-4-.79-9.58.21-12.28,2.28-5.64,4.13-7.44,12.25-4.09,18.09l1.72,2.85-5.32,2.13c-4.42,1.78-5.56,2-7,1.36-3.84-1.78-8.42-14.89-9.49-27.07-.57-6.48-1.88-9.26-4.33-9.26-2.13,0-2.87,3.06-2.13,9.47,1.55,14.25,6.63,28.35,11,31.13,4.26,2.63,11.71,1.35,17.84-3.21,1.89-1.35,3-1.71,3.69-1.21,1.71,1.29,6.79,1.71,10.22.86a13.64,13.64,0,0,0,9.33-8.05,12.4,12.4,0,0,1,1.15-2.64,34.07,34.07,0,0,1,3.19,1.71c3.84,2.28,7,2.85,10.88,1.86,6.06-1.43,11.7-8.27,7.86-9.55-1.72-.57-1.39-.71-5.24,2.07s-5.65,3.06-8.67,1.35c-3.44-2-5.81-6.55-9.33-17.66-1.88-5.84-3.68-11.18-4.17-11.9C1817.36,1135.51,1813.76,1134.3,1812.29,1136.5Zm4.66,20.87c1.56.86,2.13,9.62,1,13.46-1.31,4-3.43,5.84-6.87,5.84-8.76,0-10.88-14.24-2.87-18.52C1811,1156.66,1815,1156.3,1817,1157.37Z"
                  transform="translate(0 0)" style="fill:#9e9c9d"/>
            <path d="M1158.81,1144.34a38.19,38.19,0,0,0-.49,7.33,102.93,102.93,0,0,1-2,16.31c-2.53,12.47-2.53,14.39-.33,16.46,3.28,3,7,3.91,16.21,3.77,17.51-.28,26.67-3,21.76-6.55-.9-.64-2.53-.64-6.87-.07-7.53,1-19.15,1-21.77-.07a4.79,4.79,0,0,1-2.62-2.57c-.24-.92.33-6.41,1.31-12.25,2-12.82,2.21-19.73.41-21.94C1162.9,1143,1159.55,1142.7,1158.81,1144.34Z"
                  transform="translate(0 0)" style="fill:#9e9c9d"/>
            <path d="M1237.77,1144.91c-.57.57-1.63,4.84-2.37,9.54l-1.31,8.55-4.83.28c-7.85.5-7.93,3.42-.08,5.2l3.93.86-.25,3.63c-.32,5.41,2,11.39,5.4,14.17,2.46,2.07,3.36,2.35,7.29,2.35s4.82-.28,7.52-2.42c2.54-2.06,2.87-2.71,2.13-3.77-1.31-1.86-3.19-1.93-6-.15-5.32,3.42-9.08-.42-9.08-9.26v-5.05h3.6c4.82,0,8.67-1.28,8.67-2.85s-1.55-2.14-6.63-2.14c-2.78,0-4.17-.35-4.5-1s.17-4.63.9-9c1-6.12,1.07-8.19.33-9A3.42,3.42,0,0,0,1237.77,1144.91Z"
                  transform="translate(0 0)" style="fill:#9e9c9d"/>
            <path d="M1267.31,1147.4c-1.55.78-4.33,7-4.83,10.75-.4,2.92-.24,3.64.9,4a3.05,3.05,0,0,0,2.95-.85c1.64-1.5,5-11.4,4.34-12.82A2.54,2.54,0,0,0,1267.31,1147.4Z"
                  transform="translate(0 0)" style="fill:#9e9c9d"/>
            <path d="M1204.8,1158.44c-4.83,1.5-7,3-9.41,6.62-2,2.85-2.3,4.21-2.3,8.41s.33,5.41,2.38,8c4.83,6.19,13.42,8.47,23.32,6.26,5.56-1.21,9.9-3.49,9.9-5.13s-2.13-1.92-9.82-.56c-6.71,1.06-7.85,1.13-11.29.21-2.7-.78-4.42-1.78-5.65-3.49-1.06-1.28-1.72-2.57-1.47-2.71a14.75,14.75,0,0,1,4.09-.64c4.75-.21,11-2.63,13.91-5.2,3.19-2.92,3.77-7.62,1.07-9.76-1.89-1.49-7-3.06-10.07-3.06A27.93,27.93,0,0,0,1204.8,1158.44Zm9,5.91a3.53,3.53,0,0,1-1.48,2.92c-3.19,2.56-12.27,3.63-12.27,1.43,0-1.22,5.56-5.42,7.53-5.77C1211.42,1162.21,1213.55,1162.71,1213.8,1164.35Z"
                  transform="translate(0 0)" style="fill:#9e9c9d"/>
            <path d="M1535.63,1160.93c-.74,1.07-3.36,14.82-3.36,17.31,0,.28-1.8.57-3.93.57-2.29,0-4.66.43-5.56,1.07-1.56,1.07-1.56,1.07.24,2.42a14.56,14.56,0,0,0,5.08,1.78l3.35.43v3.77c0,8.55,4.67,15.53,11,16.6,4.83.78,11.86-2.64,11.86-5.77,0-2.42-2.53-2.85-6-1-5.81,3-8.76.43-9.33-8-.33-5.2-.33-5.41,1.56-5.84a19.76,19.76,0,0,1,4.17-.5c3.19,0,6.38-1.42,6.38-2.84s-2.29-2.14-7.61-2.14h-4l.66-6.27c.41-3.42.73-7.62.73-9.4,0-2.92-.16-3.2-2.21-3.42C1537.18,1159.58,1536.2,1159.94,1535.63,1160.93Z"
                  transform="translate(0 0)" style="fill:#9e9c9d"/>
            <path d="M1557.64,1162.14c-1.07,2.35-1.07,6.7.16,26.14.9,14.6,1.15,16.31,2.54,17,3,1.43,4.74.5,6.54-3.56,1.07-2.63,3.2-5.27,6.31-8.12,6-5.27,7.52-5.27,8.42.22,1.72,10.39,4.67,14.52,9.41,13.1,2.54-.78,3.36-3.06,1.64-4.13-2-1.28-2.86-3.35-3.52-7.91-1.06-7.83-3.93-11-9.82-11-3.68,0-9.9,2.92-12.11,5.77-.73.86-1.55,1.43-1.8,1.29-.73-.72-2-13.75-2-21.09a47.13,47.13,0,0,0-.5-8.33C1562.06,1159.58,1558.54,1160,1557.64,1162.14Z"
                  transform="translate(0 0)" style="fill:#9e9c9d"/>
            <path d="M1762.53,1161.29a27,27,0,0,0-6.13,4.2l-3.52,3.28-1.06-2.14c-.74-1.64-1.48-2.07-3.44-2.07-1.31,0-2.54.36-2.7.86a23.69,23.69,0,0,0,.73,5.84c.66,2.78,1.64,8,2.3,11.75,1.31,7.55,2.37,9,5.72,8.33l2.3-.49-.58-5.84c-.41-4.35-.24-6.77.74-9.62,1.55-4.49,6-8.69,10.23-9.76,3.76-.92,4.42-3.56,1.22-4.63C1765.73,1160.15,1765.64,1160.15,1762.53,1161.29Z"
                  transform="translate(0 0)" style="fill:#9e9c9d"/>
            <path d="M1287,1163.5c-8.67,3.77-10.8,8-5.72,11.32a60.25,60.25,0,0,0,8.91,4.2c6.88,2.78,8.43,4.56,5.9,7-1.07,1.07-2.54,1.36-6.47,1.36-4.25,0-5.64-.36-8.67-2.14-3.6-2.14-6-2.64-6.79-1.57s4.17,5.7,7,7c3.36,1.5,12.11,2.07,15.71,1.07,5.65-1.64,8.51-6.41,6.14-10.26-1.31-2.2-2.62-3.06-10.23-6.33-7.2-3.07-8.1-4.28-5.24-6.56,2.3-1.78,7.86-2.35,9.5-.92s3.68.78,3.68-1.28-3.6-4.63-6.88-4.63A21.5,21.5,0,0,0,1287,1163.5Z"
                  transform="translate(0 0)" style="fill:#9e9c9d"/>
            <path d="M1860.32,1166.84c-.82,1.29-.66,1.71.57,2.5,1.88,1.21,3.52.92,4.67-.64a1.51,1.51,0,0,0-.17-2.28A3.11,3.11,0,0,0,1860.32,1166.84Z"
                  transform="translate(0 0)" style="fill:#9e9c9d"/>
            <path d="M1716.79,1166.63a17.8,17.8,0,0,0-3.84,2.64c-7.94,7.4-6,21.29,3.6,25.64,3.11,1.42,11,1.21,15-.36,4.59-1.78,9.17-6.13,10.23-9.62s-.08-9.61-2.62-12.89c-3.35-4.27-6.79-5.69-14.15-5.84C1721.38,1166.06,1717.69,1166.27,1716.79,1166.63Zm11.54,4.77c3.85.5,6.22,3.14,6.71,7.48.66,6.34-3.27,10.54-10.56,11.18-6.87.57-10.55-3.06-10.55-10.54,0-3.63.82-5.7,3.11-8C1718.18,1170.33,1720,1170.26,1728.33,1171.4Z"
                  transform="translate(0 0)" style="fill:#9e9c9d"/>
            <path d="M1338.83,1170c-2.54,2.13-1.31,17.52,1.72,22.93,2.37,4.27,3.93,3.56,10.39-4.84,3.19-4.06,6.22-7.55,6.71-7.62.66-.22,1.15,1.64,1.47,5.27,1.48,14,3.19,14.46,14.57,4.13,3.19-2.92,6.14-5.34,6.55-5.34s.65.85.65,1.85c0,3.13,1.8,7.26,3.85,9,2.7,2.21,12.68,2.78,16.77,1,2.37-1.07,2.78-1.07,3.6-.14,3,3.63,13.91,4.34,20.62,1.42,9.58-4.13,12-15.67,4.91-22.79-3-3-5.81-4.27-11.21-5.34-5.65-1.07-9.74.07-13.5,3.63-4.26,4.13-5.57,7.34-5.24,13,.25,5.35.08,5.56-6.46,5.56-4.67,0-6-1.71-6-8,0-5.48-1.14-7-5.23-7-3,0-7.29,2.42-12.28,6.7a15.84,15.84,0,0,1-3.35,2.56c-.25,0-.41-.92-.41-2,0-3.42-2.37-9.26-4.34-10.47a8.7,8.7,0,0,0-3.6-1.07c-2.13,0-7.61,4-10.88,8l-2.29,2.7-.58-4.77C1344.31,1170,1342,1167.13,1338.83,1170Zm76.75,3.77c.25.36,1.8.86,3.44,1.07,7,1.21,9.9,4.27,9.17,10-1.07,7.76-12.44,11.9-18.82,6.91-2.54-2-2.7-2.35-2.62-7,0-3.78.49-5.48,1.88-7.48C1411.08,1173.68,1414.44,1172,1415.58,1173.75Z"
                  transform="translate(0 0)" style="fill:#9e9c9d"/>
            <path d="M1439.23,1171.47c-.73,1.57,1.72,14.32,3.77,20.16,1.88,5.2,4.42,9.12,6.22,9.69,2.45.85,5-1.86,11.62-11.9,8.91-13.74,9.81-15.38,8.75-16.88a4.1,4.1,0,0,0-2.86-1.21c-2.29,0-4.34,2.49-10.64,12.82-2.37,3.92-4.42,7.27-4.58,7.48-.74.78-1.8-2.07-3.52-9.19-2.29-9.61-3.6-12.18-6.22-12.18A2.81,2.81,0,0,0,1439.23,1171.47Z"
                  transform="translate(0 0)" style="fill:#9e9c9d"/>
            <path d="M1478.51,1173.89c-10.56,4.56-13.26,16.67-5.4,24.22,3.93,3.77,7.61,5.06,14.57,5.13,9.57,0,19.63-4.42,15.71-6.91-1.15-.78-2.21-.78-6.14,0-9.9,2.06-17.84.78-20.21-3.35-1.64-2.7-1.64-2.78,1.47-2.78a34.16,34.16,0,0,0,13.67-3.7,14.18,14.18,0,0,0,4.25-4.27c1.39-2.35,1.47-2.78.41-5.06C1494.63,1172.68,1485.22,1171,1478.51,1173.89Zm11.62,4.21c.9,1.21-2,4.34-4.91,5.41-4.17,1.5-8.59,1.35-8.59-.29,0-1.35,3.52-4.62,5.73-5.34S1489.64,1177.38,1490.13,1178.1Z"
                  transform="translate(0 0)" style="fill:#9e9c9d"/>
            <path d="M1696.83,1174.39a33.16,33.16,0,0,0-1.72,7.2c-1,6.26-2,9.33-3.11,9.33-.33,0-2.46-2.64-4.66-5.91-4.83-7.2-6.71-9-9.09-9-2.94,0-4.25,1.78-7,9.33-1.39,3.85-2.79,7-3.19,7-.74,0-.9-.35-4.26-8.55-2.62-6.55-5.73-10.18-8.43-9.82-2.53.35-2.37,2.06.82,10,3.68,8.9,7.94,15.81,10.8,17.45,2,1.21,2.13,1.14,4.34-1,1.23-1.21,3.27-4.77,4.5-8s2.45-5.91,2.86-6.12,2.29,1.92,4.18,4.7c6.87,10,10.72,12,14.32,7.26,2-2.56,4.82-11.89,5.64-18.44.49-3.49.33-4.49-.82-5.49C1700.26,1172.76,1697.81,1172.76,1696.83,1174.39Z"
                  transform="translate(0 0)" style="fill:#9e9c9d"/>
            <path d="M1603.3,1176c-6.47,3.06-10.39,9.76-9.41,16a16.28,16.28,0,0,0,9,11.46c6,2.78,16.45,2.21,23.48-1.21,3.77-1.85,4.67-3.35,3-4.77-1.06-1-2-.93-7.53.57-8.35,2.14-14.07,1.78-17.51-1.07-1.39-1.14-2.46-2.42-2.46-2.92s2-1.28,5-1.78c9.32-1.57,16.85-7.91,15-12.46-1.31-3.21-4.66-4.85-10.47-5.06C1607.55,1174.54,1605.59,1174.82,1603.3,1176Zm10.31,3.77c3.35,2.14-2.95,6.91-9.08,6.91-3.93,0-3.85.07-2.54-2.42,1-2,3.84-3.84,7.12-4.7C1612.05,1178.74,1612,1178.74,1613.61,1179.73Z"
                  transform="translate(0 0)" style="fill:#9e9c9d"/>
        </g>
    </g>
</svg>
