<svg xmlns="http://www.w3.org/2000/svg" viewBox="0 0 2732 2732">
    <title>splash</title>
    <g id="Background">
        <rect id="White" width="2732" height="2732" style="fill:#fff"/>
    </g>
    <g id="Version">
        <text transform="translate(1316 2605.9)"
              style="font-size:38.381439208984375px;fill:#9e9c9d;font-family:Thonburi">1.0.0
        </text>
    </g>
    <g id="Logo">
        <g id="Logo-2" data-name="Logo">
            <path d="M1953,625.48c-25.89,11.87-64.27,23.14-104.93,30.72-14.44,2.79-46.74,6.68-70.34,8.67-22,1.79-71.72,1.6-110.55-.6-29.33-1.59-36.78-1.59-56.14-.6-27.26,1.4-30.13,1.7-42.38,3.49-2.18.3-9.17,1.3-15.47,2.1-15.12,2.09-49.37,9.57-65.87,14.36-40.1,11.66-74.92,26.42-106.54,45.06-12.14,7.18-30.93,19.85-29.44,19.85.34,0,7.44-2.4,15.92-5.39,56.25-19.74,122.35-33.6,187.65-39.08,28.07-2.4,75.95-2.4,106,0,26.8,2.19,71.71,2.49,93.36.69,67.13-5.48,121.21-23.53,174.25-58.13,13.29-8.57,36.54-25.42,36.54-26.32,0-.2-.11-.3-.23-.3S1959.27,622.59,1953,625.48Z"
                  transform="translate(0 0)" style="fill:#f39302"/>
            <path d="M1509.4,624.09c-62.43,3-125.44,22.33-194.52,59.63-33.22,17.94-63.47,31.9-90.5,41.67-41.7,15.16-91.65,25.13-146.64,29-13.17,1-73.09.7-79-.4-7.91-1.39.68,1.5,9.85,3.39,51.43,10.47,117.88,12.86,175.73,6.48,38.72-4.28,76.76-12.66,108.37-23.83,21.31-7.58,36.78-14.86,63.47-29.91,79.5-44.87,179.51-73.19,259.82-73.49,10.54,0,19-.2,18.79-.4s-8.37-2-18.1-3.89C1579.05,625.09,1544.57,622.39,1509.4,624.09Z"
                  transform="translate(0 0)" style="fill:#266828"/>
            <path d="M1563.47,725.29c-39.18,2.7-59.34,5.29-87.06,11.27A474,474,0,0,0,1347,784.42c-78.13,42.38-137.48,60.73-223.4,69-8.7.8-28,1.3-52.35,1.3-21.19,0-38.38.1-38.26.2.92.8,30.13,5.68,43.07,7.28,28.07,3.39,46.4,4.28,79.28,3.69,63.92-1.1,117.76-9.68,169.89-27.32,17-5.69,42.73-16.56,53.27-22.44,24.06-13.36,71.48-34.7,99.09-44.57A656.81,656.81,0,0,1,1552,748.93c36.2-9.08,84.54-16.36,108.37-16.36,12,0,7.1-1.59-11.8-3.79C1618.12,725.1,1584.66,723.8,1563.47,725.29Z"
                  transform="translate(0 0)" style="fill:#e30813"/>
            <path d="M2032,742.15c-33.11,12.66-82.14,22.73-131.17,26.92-13.86,1.19-30,1.69-52.7,1.69-36.2,0-60-1.49-96.8-6.18-41.7-5.28-68.28-6.68-99.1-5.08-77.55,3.88-147,21.23-207,51.94-8.25,4.19-11.8,6.19-24.75,14.16-1.83,1-3,2.1-2.75,2.3s6.07-1.2,13-3.09c77.44-21.64,164.39-31.61,238.17-27.42,22.22,1.29,34,2.49,60.71,6,81.11,10.87,137.82,8.77,195.1-7.18,35.17-9.77,68.62-25.33,106.54-49.46C2046.45,737,2046.57,736.66,2032,742.15Z"
                  transform="translate(0 0)" style="fill:#039ee3"/>
            <path d="M1320.15,762.09c-53.27,21-137.24,32.7-212.28,29.51-26.92-1.19-57.85-3.89-76.3-6.68C990.1,778.74,941.65,778,897.88,783c-74.46,8.47-147.2,32.1-194.17,63.11-2.87,1.9-4.36,3.19-3.44,2.9C739.1,836.77,797,825.6,845.76,820.92c54.3-5.29,114.1-4.39,160.38,2.39,75,11,135.53,10.37,187.88-2,40.78-9.68,75.61-24.63,115.93-49.76C1331,758.4,1332.18,757.3,1320.15,762.09Z"
                  transform="translate(0 0)" style="fill:#016d9c"/>
            <path d="M1957.55,811.94c-30.81,11.27-67.59,18.65-106.54,21.44-18.55,1.3-65.75.7-84.54-1.1-6.76-.69-12.6-1-13-.69s.46,18.54,1.72,40.68c2.29,39.48,4,72.69,5.27,105.59.35,9.08.92,20.24,1.15,24.93s.8,20.34,1.26,34.9,1,34.7,1.49,44.87l.69,18.44,7.44-.29c11.69-.5,51.1-4,75.61-6.78a1522,1522,0,0,0,160.38-27.33c26.24-6,64.39-15.75,65.65-16.85s-31.39-71.89-33.11-71.89c-.69,0-6.19,1.8-12.26,4-22.45,8.18-53.73,16.95-82.71,23.23-11.46,2.5-38.72,7.68-40.44,7.68-.8,0-3.67-19.24-3.67-24.73,0-1.79,1.49-2.29,11.23-4.19,24.06-4.78,47.43-10.27,65-15.45,18.1-5.29,49.71-15.95,51.09-17.25,1-.9-27.15-63.52-28.41-63.42a19,19,0,0,0-3.78,1.1c-26.12,9.77-51.78,17.85-71.6,22.63-20.62,5-32,7.48-32.42,7.08s-3.55-20.44-3.67-24c0-3.09.12-3.19,9.51-5.28a640.31,640.31,0,0,0,77.56-23.43c6.64-2.5,12.14-4.59,12.25-4.59,1,0-.68-4.29-9.85-25.13-5.61-12.76-10.54-24-11-25C1966.83,808.85,1965.8,809,1957.55,811.94Z"
                  transform="translate(0 0)" style="fill:#77b82a"/>
            <path d="M1608.72,910.66c0,49.35-.46,88.94-1,88.14-1.72-2.59-20-47.16-36-87.25-8.59-21.33-32.88-83.45-32.88-83.85s-32,4.78-41.35,6.58c-18.33,3.49-40.56,8.77-56.37,13.26-17.07,4.89-16.26,3.79-11.68,14.66,16.49,39.68,29.1,68.9,48.91,113.67,11.57,26.32,24,53.44,48.58,106.29l7.56,16,19.59.7c10.88.4,24.4.9,30,1.2,13.75.6,106.77,2.39,127.62,2.39h16.5l-.69-97c-.46-76.88-2.52-176.69-3.55-177.88-.34-.4-15.58-2.3-30.59-3.89-8.93-.9-29.67-1.8-50-2.09l-34.71-.6Z"
                  transform="translate(0 0)" style="fill:#77b82a"/>
            <path d="M1371,847.24c-49.26,22.24-110.09,36.79-173.9,41.78-6.18.4-11.45,1-11.68,1.3s-2.64,6.68-5.16,14.35c-5.73,17-7.56,22.34-20,57.74-12.14,34.4-21,58.63-32.76,89.64-4.93,13.16-8.82,24.13-8.48,24.33s10.66.59,23.14.79c17.87.4,64.39,2,106.89,3.69l3.89.2,4.7-15.75,4.58-15.76,14.32.7c7.91.4,27.27,1.4,43,2.3l28.64,1.59,2,5.48c1,3,3.55,10.47,5.5,16.56l3.66,11.16,7,.6c3.9.4,18,1.3,31.16,2.1s31.05,2,39.52,2.49,19.59,1.2,24.63,1.49c25.89,1.7,34,2,34.49,1.4.23-.4-.92-3.49-2.64-7C1484.2,1068.8,1437.11,960.81,1428,938c-2-4.69-6.19-15-9.4-22.94s-11.34-28.11-17.87-44.87-12.14-30.41-12.25-30.51S1380.52,843.05,1371,847.24Zm-72.74,43.08c0,1.79,13.52,44.17,22.45,70,4.13,12,7.33,21.84,7.1,22-.68.4-51.55-2.39-52.12-2.89-.34-.3,1.72-10.07,4.58-21.74s7.68-31.91,10.66-45,5.84-23.63,6.41-23.63S1298.27,889.72,1298.27,890.32Z"
                  transform="translate(0 0)" style="fill:#77b82a"/>
            <path d="M926.52,842.55c-.23.7-8.47,20.05-18.44,43.08-20.85,48.86-32.76,75.38-33.34,74.88s1.84-106.59,2.52-112.47c.35-2.49.23-4.79-.23-5.09-1.37-.6-30.93,2-49,4.29-15.69,2-56.59,9-65,11l-4.13,1-.68,7.27c-3,31.51-5.62,238-3.1,238,.69,0,11.23-1.79,23.37-3.88,29.22-5.19,53.5-8.68,82.71-12l24.06-2.69,6.07-11.87c3.44-6.58,7.91-15.55,10-19.94s9.39-19.84,16.27-34.4,14.32-30.21,16.38-34.9a74.23,74.23,0,0,1,4.7-9.37c1-1,1.37,1.3,4.46,30.31,3.33,30.51,9.17,73.09,10.09,74,.45.4,6.75.3,14-.2s21.2-1.2,30.93-1.5,21.43-.8,25.78-1,18.9-.39,32.08-.49h24l1.49-4.29c3.09-8.68,14.32-39.29,16.38-44.57,8-20.64,46.51-135.31,45.6-136-.23-.2-8.94-.6-19.36-1q-43.31-1.49-77.79-7.67c-5.95-1.1-10.88-1.8-11-1.7s-2.74,7.28-5.72,15.76c-9.4,27-17,47.36-17.76,48.16-.46.5-1.15-3.39-1.6-8.48-2.07-25.33-4.13-55.84-4.82-70.79-.45-9.18-1.14-17-1.48-17.55-1.15-1.6-33.23-4.69-67.48-6.58C929.62,841.46,926.87,841.66,926.52,842.55Z"
                  transform="translate(0 0)" style="fill:#77b82a"/>
            <path d="M2073,1088.24c-2.18.7-1.83,2.79,2.52,13.66,2.18,5.59,4.93,13.26,6.3,17.15,2.41,7.38,5.5,11.07,8.59,10s3.1-3.19-1-12.36a168.61,168.61,0,0,1-6.41-16.75C2079.56,1088.84,2077.61,1086.55,2073,1088.24Z"
                  transform="translate(0 0)" style="fill:#9e9c9d"/>
            <path d="M2024.8,1101.1c-.69,1.1,0,4.29,2.06,9.68a91.62,91.62,0,0,1,3.9,12l.8,3.89-3.55-.7c-5.62-1.09-13.41.3-17.19,3.19-7.9,5.79-10.42,17.15-5.72,25.33l2.4,4-7.44,3c-6.19,2.49-7.79,2.79-9.86,1.89-5.38-2.49-11.8-20.84-13.29-37.89-.8-9.07-2.63-13-6.07-13-3,0-4,4.29-3,13.26,2.18,20,9.28,39.69,15.47,43.58,6,3.69,16.38,1.89,25-4.49,2.64-1.89,4.13-2.39,5.16-1.7,2.41,1.8,9.51,2.4,14.32,1.2,5.73-1.3,11.23-6.08,13.06-11.27a17.79,17.79,0,0,1,1.6-3.69,43.77,43.77,0,0,1,4.47,2.4c5.38,3.19,9.74,4,15.24,2.59,8.47-2,16.38-11.57,11-13.36-2.4-.8-1.94-1-7.33,2.89s-7.9,4.29-12.14,1.89c-4.81-2.79-8.13-9.17-13.06-24.72-2.64-8.18-5.16-15.66-5.84-16.66C2031.9,1099.71,2026.86,1098,2024.8,1101.1Zm6.53,29.22c2.18,1.2,3,13.46,1.38,18.84-1.84,5.59-4.82,8.18-9.63,8.18-12.26,0-15.23-19.94-4-25.92C2023,1129.32,2028.58,1128.82,2031.33,1130.32Z"
                  transform="translate(0 0)" style="fill:#9e9c9d"/>
            <path d="M1109.93,1112.07c-.34.9-.68,5.49-.68,10.27s-1.27,15-2.87,22.84c-3.55,17.45-3.55,20.14-.46,23,4.59,4.19,9.74,5.48,22.69,5.28,24.51-.39,37.34-4.18,30.47-9.17-1.26-.9-3.55-.9-9.62-.1-10.54,1.4-26.81,1.4-30.48-.1a6.61,6.61,0,0,1-3.66-3.59c-.35-1.29.45-9,1.83-17.15,2.86-18,3.09-27.62.57-30.71C1115.66,1110.18,1111,1109.78,1109.93,1112.07Z"
                  transform="translate(0 0)" style="fill:#9e9c9d"/>
            <path d="M1220.48,1112.87c-.8.8-2.29,6.78-3.32,13.36l-1.83,12-6.76.4c-11,.69-11.11,4.78-.12,7.27l5.5,1.2-.34,5.09c-.46,7.57,2.75,15.95,7.56,19.84,3.44,2.89,4.7,3.29,10.19,3.29s6.76-.4,10.54-3.39c3.56-2.89,4-3.79,3-5.29-1.83-2.59-4.46-2.69-8.36-.2-7.45,4.79-12.72-.59-12.72-13v-7.08h5c6.76,0,12.15-1.79,12.15-4s-2.18-3-9.28-3c-3.9,0-5.84-.5-6.3-1.39s.23-6.48,1.26-12.57c1.37-8.57,1.49-11.46.46-12.56A4.79,4.79,0,0,0,1220.48,1112.87Z"
                  transform="translate(0 0)" style="fill:#9e9c9d"/>
            <path d="M1261.84,1116.36c-2.18,1.1-6.07,9.77-6.76,15.06-.57,4.08-.34,5.08,1.26,5.58a4.26,4.26,0,0,0,4.12-1.2c2.29-2.09,7-16,6.07-17.94A3.54,3.54,0,0,0,1261.84,1116.36Z"
                  transform="translate(0 0)" style="fill:#9e9c9d"/>
            <path d="M1174.31,1131.82c-6.75,2.09-9.73,4.18-13.17,9.27-2.75,4-3.21,5.88-3.21,11.76,0,6.09.46,7.58,3.32,11.27,6.76,8.68,18.79,11.87,32.65,8.78,7.79-1.7,13.87-4.89,13.87-7.18,0-2.5-3-2.7-13.75-.8-9.4,1.49-11,1.59-15.81.3-3.78-1.1-6.19-2.49-7.9-4.89-1.49-1.79-2.41-3.59-2.07-3.79s2.87-.69,5.73-.89c6.65-.3,15.47-3.69,19.48-7.28,4.46-4.09,5.27-10.67,1.49-13.66-2.64-2.1-9.86-4.29-14.1-4.29A39.74,39.74,0,0,0,1174.31,1131.82Zm12.61,8.27c.23,1.2-.69,3-2.07,4.09-4.46,3.59-17.18,5.08-17.18,2,0-1.69,7.79-7.57,10.54-8.07C1183.59,1137.1,1186.57,1137.8,1186.92,1140.09Z"
                  transform="translate(0 0)" style="fill:#9e9c9d"/>
            <path d="M1637.48,1135.31c-1,1.49-4.7,20.73-4.7,24.22,0,.4-2.52.8-5.5.8-3.21,0-6.53.6-7.79,1.5-2.18,1.49-2.18,1.49.34,3.39a20.09,20.09,0,0,0,7.11,2.49l4.69.6v5.28c0,12,6.53,21.74,15.47,23.24,6.76,1.09,16.61-3.69,16.61-8.08,0-3.39-3.55-4-8.48-1.4-8.13,4.19-12.25.6-13.06-11.16-.45-7.28-.45-7.58,2.18-8.18a27.23,27.23,0,0,1,5.84-.7c4.47,0,8.94-2,8.94-4s-3.21-3-10.66-3h-5.61l.92-8.77c.57-4.79,1-10.67,1-13.16,0-4.09-.23-4.49-3.09-4.79C1639.65,1133.41,1638.28,1133.91,1637.48,1135.31Z"
                  transform="translate(0 0)" style="fill:#9e9c9d"/>
            <path d="M1668.29,1137c-1.49,3.29-1.49,9.37.23,36.59,1.26,20.44,1.61,22.84,3.55,23.74,4.24,2,6.65.69,9.17-5,1.49-3.69,4.47-7.38,8.82-11.37,8.36-7.38,10.54-7.38,11.8.3,2.4,14.56,6.53,20.34,13.17,18.35,3.55-1.1,4.7-4.29,2.29-5.78-2.75-1.8-4-4.69-4.92-11.07-1.49-11-5.5-15.46-13.75-15.46-5.15,0-13.86,4.09-17,8.08-1,1.2-2.18,2-2.52,1.79-1-1-2.87-19.24-2.87-29.51,0-5.58-.34-10.77-.69-11.67C1674.48,1133.41,1669.55,1134,1668.29,1137Z"
                  transform="translate(0 0)" style="fill:#9e9c9d"/>
            <path d="M1955.15,1135.8a37.74,37.74,0,0,0-8.59,5.89l-4.93,4.58-1.49-3c-1-2.29-2.06-2.89-4.81-2.89-1.83,0-3.55.5-3.78,1.2s.23,4.28,1,8.17,2.29,11.27,3.21,16.46c1.83,10.56,3.32,12.66,8,11.66l3.21-.7-.81-8.17c-.57-6.08-.34-9.48,1-13.46,2.18-6.29,8.37-12.17,14.32-13.66,5.27-1.3,6.19-5,1.72-6.49C1959.62,1134.21,1959.5,1134.21,1955.15,1135.8Z"
                  transform="translate(0 0)" style="fill:#9e9c9d"/>
            <path d="M1289.45,1138.89c-12.15,5.29-15.13,11.17-8,15.86a85.12,85.12,0,0,0,12.48,5.88c9.63,3.89,11.8,6.38,8.25,9.77-1.49,1.5-3.55,1.9-9.05,1.9-5.95,0-7.9-.5-12.14-3-5-3-8.36-3.69-9.51-2.2-.92,1.3,5.84,8,9.74,9.77,4.7,2.1,17,2.9,22,1.5,7.91-2.29,11.92-9,8.6-14.36-1.84-3.09-3.67-4.29-14.32-8.87-10.09-4.29-11.35-6-7.34-9.18,3.21-2.49,11-3.29,13.29-1.29s5.16,1.09,5.16-1.8c0-3.09-5-6.48-9.63-6.48A30.28,30.28,0,0,0,1289.45,1138.89Z"
                  transform="translate(0 0)" style="fill:#9e9c9d"/>
            <path d="M2092.05,1143.58c-1.15,1.8-.92,2.39.8,3.49,2.63,1.7,4.92,1.3,6.53-.9.92-1.19.8-2.09-.23-3.19A4.37,4.37,0,0,0,2092.05,1143.58Z"
                  transform="translate(0 0)" style="fill:#9e9c9d"/>
            <path d="M1891.11,1143.28a25.07,25.07,0,0,0-5.38,3.69c-11.12,10.37-8.37,29.81,5,35.9,4.35,2,15.46,1.69,21.08-.5,6.41-2.49,12.83-8.58,14.32-13.46,1.6-5.09-.12-13.46-3.67-18.05-4.7-6-9.51-8-19.82-8.18C1897.53,1142.48,1892.37,1142.78,1891.11,1143.28Zm16.15,6.68c5.39.7,8.71,4.39,9.4,10.47.91,8.88-4.59,14.76-14.78,15.66-9.62.79-14.78-4.29-14.78-14.76,0-5.09,1.15-8,4.35-11.17C1893.06,1148.47,1895.58,1148.37,1907.26,1150Z"
                  transform="translate(0 0)" style="fill:#9e9c9d"/>
            <path d="M1362,1148c-3.55,3-1.83,24.53,2.41,32.11,3.32,6,5.5,5,14.55-6.79,4.46-5.68,8.7-10.56,9.39-10.66.92-.3,1.6,2.29,2.06,7.37,2.06,19.55,4.47,20.25,20.39,5.79,4.47-4.09,8.6-7.48,9.17-7.48s.92,1.2.92,2.59c0,4.39,2.52,10.17,5.38,12.57,3.78,3.09,17.76,3.88,23.48,1.39,3.33-1.49,3.9-1.49,5-.2,4.23,5.09,19.47,6.08,28.86,2,13.41-5.79,16.84-21.94,6.88-31.91-4.24-4.19-8.14-6-15.7-7.48-7.9-1.5-13.63.1-18.9,5.09-6,5.78-7.79,10.27-7.33,18.14.34,7.48.11,7.78-9,7.78-6.53,0-8.36-2.39-8.36-11.17,0-7.67-1.61-9.77-7.34-9.77-4.12,0-10.19,3.39-17.18,9.37-2.18,2-4.35,3.59-4.7,3.59s-.57-1.29-.57-2.79c0-4.78-3.32-13-6.07-14.66a12.33,12.33,0,0,0-5-1.49c-3,0-10.66,5.58-15.24,11.17l-3.21,3.79-.8-6.69C1369.64,1148,1366.43,1144,1362,1148Zm107.46,5.28c.34.5,2.52,1.2,4.81,1.5,9.85,1.69,13.86,6,12.83,14-1.49,10.87-17.41,16.65-26.35,9.67-3.55-2.79-3.78-3.29-3.66-9.87,0-5.29.68-7.68,2.63-10.47C1463.12,1153.15,1467.81,1150.86,1469.42,1153.25Z"
                  transform="translate(0 0)" style="fill:#9e9c9d"/>
            <path d="M1502.53,1150.06c-1,2.2,2.4,20,5.27,28.22,2.63,7.28,6.18,12.76,8.7,13.56,3.44,1.2,7-2.59,16.27-16.65,12.49-19.24,13.75-21.54,12.26-23.63a5.73,5.73,0,0,0-4-1.7c-3.21,0-6.07,3.49-14.89,18-3.33,5.48-6.19,10.17-6.42,10.47-1,1.1-2.52-2.89-4.93-12.86-3.2-13.46-5-17.05-8.7-17.05C1504.47,1148.37,1503,1149.07,1502.53,1150.06Z"
                  transform="translate(0 0)" style="fill:#9e9c9d"/>
            <path d="M1557.51,1153.45c-14.77,6.38-18.55,23.33-7.56,33.9,5.5,5.29,10.66,7.08,20.4,7.18,13.4,0,27.49-6.18,22-9.67-1.6-1.1-3.09-1.1-8.59,0-13.86,2.89-25,1.1-28.3-4.69-2.29-3.78-2.29-3.88,2.06-3.88,5.27,0,14.55-2.5,19.14-5.19a19.73,19.73,0,0,0,5.95-6c2-3.29,2.06-3.89.58-7.08C1580.08,1151.76,1566.91,1149.36,1557.51,1153.45Zm16.27,5.89c1.26,1.69-2.75,6.08-6.87,7.57-5.84,2.1-12,1.9-12-.4,0-1.89,4.93-6.48,8-7.47S1573.09,1158.34,1573.78,1159.34Z"
                  transform="translate(0 0)" style="fill:#9e9c9d"/>
            <path d="M1863.16,1154.15c-.57,1-1.72,5.48-2.41,10.07-1.37,8.78-2.75,13.06-4.35,13.06-.46,0-3.44-3.69-6.53-8.27-6.76-10.07-9.39-12.67-12.72-12.67-4.12,0-6,2.5-9.73,13.07-2,5.38-3.9,9.87-4.47,9.87-1,0-1.26-.5-6-12-3.67-9.17-8-14.26-11.8-13.76-3.55.5-3.32,2.89,1.15,14,5.15,12.47,11.11,22.14,15.12,24.43,2.86,1.7,3,1.6,6.07-1.4,1.72-1.69,4.58-6.68,6.3-11.16s3.44-8.28,4-8.58,3.21,2.69,5.84,6.58c9.63,14,15,16.75,20,10.17,2.75-3.59,6.76-16.65,7.91-25.82.68-4.89.45-6.28-1.15-7.68C1868,1151.86,1864.53,1151.86,1863.16,1154.15Z"
                  transform="translate(0 0)" style="fill:#9e9c9d"/>
            <path d="M1732.22,1156.34c-9,4.29-14.55,13.66-13.18,22.44,1,6.48,6.3,13.26,12.6,16,8.48,3.89,23,3.09,32.88-1.69,5.27-2.6,6.53-4.69,4.13-6.68-1.49-1.4-2.75-1.3-10.54.79-11.69,3-19.71,2.5-24.52-1.49-1.95-1.6-3.44-3.39-3.44-4.09s2.87-1.79,7-2.49c13.06-2.2,23.6-11.07,21.08-17.45-1.83-4.49-6.53-6.78-14.66-7.08C1738.17,1154.35,1735.42,1154.75,1732.22,1156.34Zm14.43,5.29c4.7,3-4.12,9.67-12.71,9.67-5.5,0-5.39.1-3.56-3.39,1.38-2.79,5.39-5.38,10-6.58C1744.47,1160.23,1744.36,1160.23,1746.65,1161.63Z"
                  transform="translate(0 0)" style="fill:#9e9c9d"/>
        </g>
    </g>
</svg>
